<svg version="1.1" xmlns="http://www.w3.org/2000/svg" xmlns:xlink="http://www.w3.org/1999/xlink">
  <symbol id="search" xmlns="http://www.w3.org/2000/svg" viewBox="0 0 24 24" width="24px" height="24px" >
    <path d="M 9 2 C 5.1458514 2 2 5.1458514 2 9 C 2 12.854149 5.1458514 16 9 16 C 10.747998 16 12.345009 15.348024 13.574219 14.28125 L 14 14.707031 L 14 16 L 20 22 L 22 20 L 16 14 L 14.707031 14 L 14.28125 13.574219 C 15.348024 12.345009 16 10.747998 16 9 C 16 5.1458514 12.854149 2 9 2 z M 9 4 C 11.773268 4 14 6.2267316 14 9 C 14 11.773268 11.773268 14 9 14 C 6.2267316 14 4 11.773268 4 9 C 4 6.2267316 6.2267316 4 9 4 z" />
  </symbol>

  <symbol id="reset" version="1.1" xmlns="http://www.w3.org/2000/svg" xmlns:xlink="http://www.w3.org/1999/xlink" x="0px" y="0px" width="94.926px" height="94.926px" viewBox="0 0 94.926 94.926" style="enable-background:new 0 0 94.926 94.926;" xml:space="preserve">
    <g>
      <path d="M55.931,47.463L94.306,9.09c0.826-0.827,0.826-2.167,0-2.994L88.833,0.62C88.436,0.224,87.896,0,87.335,0
        c-0.562,0-1.101,0.224-1.498,0.62L47.463,38.994L9.089,0.62c-0.795-0.795-2.202-0.794-2.995,0L0.622,6.096
        c-0.827,0.827-0.827,2.167,0,2.994l38.374,38.373L0.622,85.836c-0.827,0.827-0.827,2.167,0,2.994l5.473,5.476
        c0.397,0.396,0.936,0.62,1.498,0.62s1.1-0.224,1.497-0.62l38.374-38.374l38.374,38.374c0.397,0.396,0.937,0.62,1.498,0.62
        s1.101-0.224,1.498-0.62l5.473-5.476c0.826-0.827,0.826-2.167,0-2.994L55.931,47.463z"/>
    </g>
  </symbol>

</svg>